# 3ds Max Wavefront OBJ Exporter v0.97b - (c)2007 guruware
# File Created: 19.12.2016 20:54:43

#
# object Box001
#

v  -0.0371 -0.5782 -0.3346
v  -0.4539 0.2571 0.0239
v  0.4452 0.5782 0.3213
v  0.8621 -0.2571 -0.0372
v  -0.1703 -1.0246 0.5502
v  0.7288 -0.7035 0.8476
v  0.3119 0.1318 1.2062
v  -0.5872 -0.1893 0.9088
# 8 vertices

vn 0.1333 0.4464 -0.8849
vn -0.1333 -0.4464 0.8849
vn 0.4169 -0.8352 -0.3586
vn 0.8991 0.3211 0.2974
vn -0.4169 0.8352 0.3586
vn -0.8991 -0.3211 -0.2974
# 6 vertex normals

vt 1.0000 0.0000 0.0000
vt 1.0000 1.0000 0.0000
vt 0.0000 1.0000 0.0000
vt 0.0000 0.0000 0.0000
# 4 texture coords

g Box001
f 1/1/1 2/2/1 3/3/1
f 3/3/1 4/4/1 1/1/1
f 5/4/2 6/1/2 7/2/2
f 7/2/2 8/3/2 5/4/2
f 1/4/3 4/1/3 6/2/3
f 6/2/3 5/3/3 1/4/3
f 4/4/4 3/1/4 7/2/4
f 7/2/4 6/3/4 4/4/4
f 3/4/5 2/1/5 8/2/5
f 8/2/5 7/3/5 3/4/5
f 2/4/6 1/1/6 5/2/6
f 5/2/6 8/3/6 2/4/6
# 12 faces

